# Made in Blockbench 4.9.1
mtllib BMJ-PannelSmall.mtl

o cuboid
v 0.3125 0.375 0.0625
v 0.3125 0.375 -0.0625
v 0.3125 0 0.0625
v 0.3125 0 -0.0625
v -0.3125 0.375 0.0625
v -0.3125 0.375 -0.0625
v -0.3125 0 0.0625
v -0.3125 0 -0.0625
vt 0.40625 0.8125
vt 0.34375 0.8125
vt 0.34375 0.625
vt 0.40625 0.625
vt 0.40625 0.40625
vt 0.40625 0.59375
vt 0.34375 0.59375
vt 0.34375 0.40625
vt 0.34375 0.9375
vt 0.65625 0.9375
vt 0.65625 1
vt 0.34375 1
vt 0.65625 0.84375
vt 0.65625 0.90625
vt 0.34375 0.90625
vt 0.34375 0.84375
vt 0.3125 0.8125
vt 0.3125 1
vt 0 1
vt 0 0.8125
vt 0.3125 0.78125
vt 0 0.78125
vt 0 0.59375
vt 0.3125 0.59375
vn 1 0 0
vn -1 0 0
vn 0 1 0
vn 0 -1 0
vn 0 0 1
vn 0 0 -1
usemtl m_30c5d768-d246-01ca-f769-fb773fea6f2a
f 2/1/1 1/2/1 3/3/1 4/4/1
f 7/5/2 5/6/2 6/7/2 8/8/2
f 5/9/3 1/10/3 2/11/3 6/12/3
f 4/13/4 3/14/4 7/15/4 8/16/4
f 3/17/5 1/18/5 5/19/5 7/20/5
f 6/21/6 2/22/6 4/23/6 8/24/6