# Made in Blockbench 4.9.1
mtllib BMJ_Console.mtl

o cuboid
v 0.3125 1.3928571428571428 0.625
v 0.3125 1.3928571428571428 -0.625
v 0.3125 -1.1102230246251565e-16 0.625
v 0.3125 -1.1102230246251565e-16 -0.625
v -0.4375 1.3928571428571428 0.625
v -0.4375 1.3928571428571428 -0.625
v -0.4375 -1.1102230246251565e-16 0.625
v -0.4375 -1.1102230246251565e-16 -0.625
v -0.4375 1.6249999999999996 0.625
v -0.4375 1.6249999999999996 -0.625
vt 0.3203125 1
vt 0.1640625 1
vt 0.1640625 0.828125
vt 0.3203125 0.828125
vt 0.15625 0.796875
vt 0.15625 0.9709820312499999
vt 0 0.9709820312499999
vt 0 0.796875
vt 0.5 0.515625
vt 0.5 0.671875
vt 0.40625 0.671875
vt 0.40625 0.515625
vt 0.2734375 0.453125
vt 0.2734375 0.6272320312499999
vt 0.1796875 0.6272320312499999
vt 0.1796875 0.453125
vt 0.3984375 0.6428570312499999
vt 0.3046875 0.6428570312499999
vt 0.3046875 0.46875
vt 0.3984375 0.46875
vt 0.15625 1
vt 0 1
vt 0 0.9709820312499999
vt 0.15625 0.9709820312499999
vt 0 0.7890625
vt 0 0.6875
vt 0.15625 0.6875
vt 0.15625 0.7890625
vt 0.1796875 0.65625
vt 0.1796875 0.6272320312499999
vt 0.2734375 0.6272320312499999
vt 0.3046875 0.6428570312499999
vt 0.3984375 0.6428570312499999
vt 0.3984375 0.671875
vn 1 0 0
vn -1 0 0
vn 0 -1 0
vn 0 0 1
vn 0 0 -1
vn -1 0 0
vn 0.29568372807113036 0.9552858906913458 0
vn 0 0 1
vn 0 0 -1
usemtl m_5b496b04-1182-ab53-cbb0-e47435491775
f 2/1/1 1/2/1 3/3/1 4/4/1
f 7/5/2 5/6/2 6/7/2 8/8/2
f 4/9/3 3/10/3 7/11/3 8/12/3
f 3/13/4 1/14/4 5/15/4 7/16/4
f 6/17/5 2/18/5 4/19/5 8/20/5
f 9/21/6 10/22/6 6/23/6 5/24/6
f 9/25/7 1/26/7 2/27/7 10/28/7
f 9/29/8 5/30/8 1/31/8
f 2/32/9 6/33/9 10/34/9
o cuboid
v 0.125 1.25 2
v 0.125 1.25 0.625
v 0.125 0 2
v 0.125 0 0.625
v -0.4375 1.25 2
v -0.4375 1.25 0.625
v -0.4375 0 2
v -0.4375 0 0.625
vt 0.3359375 0.8203125
vt 0.1640625 0.8203125
vt 0.1640625 0.6640625
vt 0.3359375 0.6640625
vt 0.5 0.84375
vt 0.5 1
vt 0.328125 1
vt 0.328125 0.84375
vt 0.40625 0.3359375
vt 0.4765625 0.3359375
vt 0.4765625 0.5078125
vt 0.40625 0.5078125
vt 0.5546875 0.3359375
vt 0.5546875 0.5078125
vt 0.484375 0.5078125
vt 0.484375 0.3359375
vt 0.578125 0.84375
vt 0.578125 1
vt 0.5078125 1
vt 0.5078125 0.84375
vt 0.578125 0.671875
vt 0.5078125 0.671875
vt 0.5078125 0.515625
vt 0.578125 0.515625
vn 1 0 0
vn -1 0 0
vn 0 1 0
vn 0 -1 0
vn 0 0 1
vn 0 0 -1
usemtl m_5b496b04-1182-ab53-cbb0-e47435491775
f 12/35/10 11/36/10 13/37/10 14/38/10
f 17/39/11 15/40/11 16/41/11 18/42/11
f 15/43/12 11/44/12 12/45/12 16/46/12
f 14/47/13 13/48/13 17/49/13 18/50/13
f 13/51/14 11/52/14 15/53/14 17/54/14
f 16/55/15 12/56/15 14/57/15 18/58/15
o cuboid
v 0.125 1.25 -0.625
v 0.125 1.25 -2
v 0.125 0 -0.625
v 0.125 0 -2
v -0.4375 1.25 -0.625
v -0.4375 1.25 -2
v -0.4375 0 -0.625
v -0.4375 0 -2
vt 0.171875 0.65625
vt 0 0.65625
vt 0 0.5
vt 0.171875 0.5
vt 0.515625 0.6796875
vt 0.515625 0.8359375
vt 0.34375 0.8359375
vt 0.34375 0.6796875
vt 0 0.3203125
vt 0.0703125 0.3203125
vt 0.0703125 0.4921875
vt 0 0.4921875
vt 0.1484375 0.3203125
vt 0.1484375 0.4921875
vt 0.078125 0.4921875
vt 0.078125 0.3203125
vt 0.59375 0.6796875
vt 0.59375 0.8359375
vt 0.5234375 0.8359375
vt 0.5234375 0.6796875
vt 0.3515625 0.4609375
vt 0.28125 0.4609375
vt 0.28125 0.3046875
vt 0.3515625 0.3046875
vn 1 0 0
vn -1 0 0
vn 0 1 0
vn 0 -1 0
vn 0 0 1
vn 0 0 -1
usemtl m_5b496b04-1182-ab53-cbb0-e47435491775
f 20/59/16 19/60/16 21/61/16 22/62/16
f 25/63/17 23/64/17 24/65/17 26/66/17
f 23/67/18 19/68/18 20/69/18 24/70/18
f 22/71/19 21/72/19 25/73/19 26/74/19
f 21/75/20 19/76/20 23/77/20 25/78/20
f 24/79/21 20/80/21 22/81/21 26/82/21
o cuboid
v 0.4375 0.4375 -0.125
v 0.4375 0.4375 -0.5
v 0.4375 0.0625 -0.125
v 0.4375 0.0625 -0.5
v 0.3125 0.4375 -0.125
v 0.3125 0.4375 -0.5
v 0.3125 0.0625 -0.125
v 0.3125 0.0625 -0.5
vt 0.203125 0.4453125
vt 0.15625 0.4453125
vt 0.15625 0.3984375
vt 0.203125 0.3984375
vt 0.2578125 0.3984375
vt 0.2578125 0.4453125
vt 0.2109375 0.4453125
vt 0.2109375 0.3984375
vt 0.28125 0.609375
vt 0.296875 0.609375
vt 0.296875 0.65625
vt 0.28125 0.65625
vt 0.296875 0.5546875
vt 0.296875 0.6015625
vt 0.28125 0.6015625
vt 0.28125 0.5546875
vt 0.296875 0.5
vt 0.296875 0.546875
vt 0.28125 0.546875
vt 0.28125 0.5
vt 0.640625 0.640625
vt 0.625 0.640625
vt 0.625 0.59375
vt 0.640625 0.59375
vn 1 0 0
vn -1 0 0
vn 0 1 0
vn 0 -1 0
vn 0 0 1
vn 0 0 -1
usemtl m_5b496b04-1182-ab53-cbb0-e47435491775
f 28/83/22 27/84/22 29/85/22 30/86/22
f 33/87/23 31/88/23 32/89/23 34/90/23
f 31/91/24 27/92/24 28/93/24 32/94/24
f 30/95/25 29/96/25 33/97/25 34/98/25
f 29/99/26 27/100/26 31/101/26 33/102/26
f 32/103/27 28/104/27 30/105/27 34/106/27
o cuboid
v 0.6875 0.375 -0.1875
v 0.6875 0.375 -0.4375
v 0.6875 0.125 -0.1875
v 0.6875 0.125 -0.4375
v 0.4375 0.375 -0.1875
v 0.4375 0.375 -0.4375
v 0.4375 0.125 -0.1875
v 0.4375 0.125 -0.4375
vt 0.6328125 0.8359375
vt 0.6015625 0.8359375
vt 0.6015625 0.8046875
vt 0.6328125 0.8046875
vt 0.6328125 0.765625
vt 0.6328125 0.796875
vt 0.6015625 0.796875
vt 0.6015625 0.765625
vt 0.6015625 0.7265625
vt 0.6328125 0.7265625
vt 0.6328125 0.7578125
vt 0.6015625 0.7578125
vt 0.6328125 0.6875
vt 0.6328125 0.71875
vt 0.6015625 0.71875
vt 0.6015625 0.6875
vt 0.59375 0.3671875
vt 0.59375 0.3984375
vt 0.5625 0.3984375
vt 0.5625 0.3671875
vt 0.6328125 0.3984375
vt 0.6015625 0.3984375
vt 0.6015625 0.3671875
vt 0.6328125 0.3671875
vn 1 0 0
vn -1 0 0
vn 0 1 0
vn 0 -1 0
vn 0 0 1
vn 0 0 -1
usemtl m_5b496b04-1182-ab53-cbb0-e47435491775
f 36/107/28 35/108/28 37/109/28 38/110/28
f 41/111/29 39/112/29 40/113/29 42/114/29
f 39/115/30 35/116/30 36/117/30 40/118/30
f 38/119/31 37/120/31 41/121/31 42/122/31
f 37/123/32 35/124/32 39/125/32 41/126/32
f 40/127/33 36/128/33 38/129/33 42/130/33
o cuboid
v 0.9375 0.375 -0.1875
v 0.9375 0.375 -0.4375
v 0.9375 0 -0.1875
v 0.9375 0 -0.4375
v 0.6875 0.375 -0.1875
v 0.6875 0.375 -0.4375
v 0.6875 0 -0.1875
v 0.6875 0 -0.4375
vt 0.390625 0.4609375
vt 0.359375 0.4609375
vt 0.359375 0.4140625
vt 0.390625 0.4140625
vt 0.6171875 0.953125
vt 0.6171875 1
vt 0.5859375 1
vt 0.5859375 0.953125
vt 0.15625 0.359375
vt 0.1875 0.359375
vt 0.1875 0.390625
vt 0.15625 0.390625
vt 0.2265625 0.359375
vt 0.2265625 0.390625
vt 0.1953125 0.390625
vt 0.1953125 0.359375
vt 0.6171875 0.8984375
vt 0.6171875 0.9453125
vt 0.5859375 0.9453125
vt 0.5859375 0.8984375
vt 0.6171875 0.890625
vt 0.5859375 0.890625
vt 0.5859375 0.84375
vt 0.6171875 0.84375
vn 1 0 0
vn -1 0 0
vn 0 1 0
vn 0 -1 0
vn 0 0 1
vn 0 0 -1
usemtl m_5b496b04-1182-ab53-cbb0-e47435491775
f 44/131/34 43/132/34 45/133/34 46/134/34
f 49/135/35 47/136/35 48/137/35 50/138/35
f 47/139/36 43/140/36 44/141/36 48/142/36
f 46/143/37 45/144/37 49/145/37 50/146/37
f 45/147/38 43/148/38 47/149/38 49/150/38
f 48/151/39 44/152/39 46/153/39 50/154/39
o cuboid
v 0.4375 0.4375 0.5
v 0.4375 0.4375 0.125
v 0.4375 0.0625 0.5
v 0.4375 0.0625 0.125
v 0.3125 0.4375 0.5
v 0.3125 0.4375 0.125
v 0.3125 0.0625 0.5
v 0.3125 0.0625 0.125
vt 0.609375 0.5078125
vt 0.5625 0.5078125
vt 0.5625 0.4609375
vt 0.609375 0.4609375
vt 0.609375 0.40625
vt 0.609375 0.453125
vt 0.5625 0.453125
vt 0.5625 0.40625
vt 0.625 0.5390625
vt 0.640625 0.5390625
vt 0.640625 0.5859375
vt 0.625 0.5859375
vt 0.65625 0.796875
vt 0.65625 0.84375
vt 0.640625 0.84375
vt 0.640625 0.796875
vt 0.65625 0.7421875
vt 0.65625 0.7890625
vt 0.640625 0.7890625
vt 0.640625 0.7421875
vt 0.65625 0.734375
vt 0.640625 0.734375
vt 0.640625 0.6875
vt 0.65625 0.6875
vn 1 0 0
vn -1 0 0
vn 0 1 0
vn 0 -1 0
vn 0 0 1
vn 0 0 -1
usemtl m_5b496b04-1182-ab53-cbb0-e47435491775
f 52/155/40 51/156/40 53/157/40 54/158/40
f 57/159/41 55/160/41 56/161/41 58/162/41
f 55/163/42 51/164/42 52/165/42 56/166/42
f 54/167/43 53/168/43 57/169/43 58/170/43
f 53/171/44 51/172/44 55/173/44 57/174/44
f 56/175/45 52/176/45 54/177/45 58/178/45
o cuboid
v 0.6875 0.375 0.4375
v 0.6875 0.375 0.1875
v 0.6875 0.125 0.4375
v 0.6875 0.125 0.1875
v 0.4375 0.375 0.4375
v 0.4375 0.375 0.1875
v 0.4375 0.125 0.4375
v 0.4375 0.125 0.1875
vt 0.265625 0.390625
vt 0.234375 0.390625
vt 0.234375 0.359375
vt 0.265625 0.359375
vt 0.6484375 0.4765625
vt 0.6484375 0.5078125
vt 0.6171875 0.5078125
vt 0.6171875 0.4765625
vt 0.6171875 0.4375
vt 0.6484375 0.4375
vt 0.6484375 0.46875
vt 0.6171875 0.46875
vt 0.65625 0.96875
vt 0.65625 1
vt 0.625 1
vt 0.625 0.96875
vt 0.65625 0.9296875
vt 0.65625 0.9609375
vt 0.625 0.9609375
vt 0.625 0.9296875
vt 0.65625 0.921875
vt 0.625 0.921875
vt 0.625 0.890625
vt 0.65625 0.890625
vn 1 0 0
vn -1 0 0
vn 0 1 0
vn 0 -1 0
vn 0 0 1
vn 0 0 -1
usemtl m_5b496b04-1182-ab53-cbb0-e47435491775
f 60/179/46 59/180/46 61/181/46 62/182/46
f 65/183/47 63/184/47 64/185/47 66/186/47
f 63/187/48 59/188/48 60/189/48 64/190/48
f 62/191/49 61/192/49 65/193/49 66/194/49
f 61/195/50 59/196/50 63/197/50 65/198/50
f 64/199/51 60/200/51 62/201/51 66/202/51
o cuboid
v 0.9375 0.375 0.4375
v 0.9375 0.375 0.1875
v 0.9375 0 0.4375
v 0.9375 0 0.1875
v 0.6875 0.375 0.4375
v 0.6875 0.375 0.1875
v 0.6875 0 0.4375
v 0.6875 0 0.1875
vt 0.6171875 0.671875
vt 0.5859375 0.671875
vt 0.5859375 0.625
vt 0.6171875 0.625
vt 0.6171875 0.5703125
vt 0.6171875 0.6171875
vt 0.5859375 0.6171875
vt 0.5859375 0.5703125
vt 0.625 0.8515625
vt 0.65625 0.8515625
vt 0.65625 0.8828125
vt 0.625 0.8828125
vt 0.65625 0.6484375
vt 0.65625 0.6796875
vt 0.625 0.6796875
vt 0.625 0.6484375
vt 0.6171875 0.515625
vt 0.6171875 0.5625
vt 0.5859375 0.5625
vt 0.5859375 0.515625
vt 0.390625 0.40625
vt 0.359375 0.40625
vt 0.359375 0.359375
vt 0.390625 0.359375
vn 1 0 0
vn -1 0 0
vn 0 1 0
vn 0 -1 0
vn 0 0 1
vn 0 0 -1
usemtl m_5b496b04-1182-ab53-cbb0-e47435491775
f 68/203/52 67/204/52 69/205/52 70/206/52
f 73/207/53 71/208/53 72/209/53 74/210/53
f 71/211/54 67/212/54 68/213/54 72/214/54
f 70/215/55 69/216/55 73/217/55 74/218/55
f 69/219/56 67/220/56 71/221/56 73/222/56
f 72/223/57 68/224/57 70/225/57 74/226/57
o cuboid
v -0.125 1.5 -0.625
v -0.125 1.5 -0.6875
v -0.125 1.375 -0.625
v -0.125 1.375 -0.6875
v -0.25 1.5 -0.625
v -0.25 1.5 -0.6875
v -0.25 1.375 -0.625
v -0.25 1.375 -0.6875
vt 0.2734375 0.65625
vt 0.265625 0.65625
vt 0.265625 0.640625
vt 0.2734375 0.640625
vt 0.2734375 0.4296875
vt 0.2734375 0.4453125
vt 0.265625 0.4453125
vt 0.265625 0.4296875
vt 0.2421875 0.6484375
vt 0.2578125 0.6484375
vt 0.2578125 0.65625
vt 0.2421875 0.65625
vt 0.6328125 0.421875
vt 0.6328125 0.4296875
vt 0.6171875 0.4296875
vt 0.6171875 0.421875
vt 0.015625 0.6640625
vt 0.015625 0.6796875
vt 0 0.6796875
vt 0 0.6640625
vt 0.0390625 0.6796875
vt 0.0234375 0.6796875
vt 0.0234375 0.6640625
vt 0.0390625 0.6640625
vn 1 0 0
vn -1 0 0
vn 0 1 0
vn 0 -1 0
vn 0 0 1
vn 0 0 -1
usemtl m_5b496b04-1182-ab53-cbb0-e47435491775
f 76/227/58 75/228/58 77/229/58 78/230/58
f 81/231/59 79/232/59 80/233/59 82/234/59
f 79/235/60 75/236/60 76/237/60 80/238/60
f 78/239/61 77/240/61 81/241/61 82/242/61
f 77/243/62 75/244/62 79/245/62 81/246/62
f 80/247/63 76/248/63 78/249/63 82/250/63
o cuboid
v -0.125 1.5 -0.6875
v -0.125 1.5 -0.8125
v -0.125 1.25 -0.6875
v -0.125 1.25 -0.8125
v -0.25 1.5 -0.6875
v -0.25 1.5 -0.8125
v -0.25 1.25 -0.6875
v -0.25 1.25 -0.8125
vt 0.171875 0.4921875
vt 0.15625 0.4921875
vt 0.15625 0.4609375
vt 0.171875 0.4609375
vt 0.578125 0.328125
vt 0.578125 0.359375
vt 0.5625 0.359375
vt 0.5625 0.328125
vt 0.09375 0.6640625
vt 0.109375 0.6640625
vt 0.109375 0.6796875
vt 0.09375 0.6796875
vt 0.1328125 0.6640625
vt 0.1328125 0.6796875
vt 0.1171875 0.6796875
vt 0.1171875 0.6640625
vt 0.65625 0.3984375
vt 0.65625 0.4296875
vt 0.640625 0.4296875
vt 0.640625 0.3984375
vt 0.6015625 0.359375
vt 0.5859375 0.359375
vt 0.5859375 0.328125
vt 0.6015625 0.328125
vn 1 0 0
vn -1 0 0
vn 0 1 0
vn 0 -1 0
vn 0 0 1
vn 0 0 -1
usemtl m_5b496b04-1182-ab53-cbb0-e47435491775
f 84/251/64 83/252/64 85/253/64 86/254/64
f 89/255/65 87/256/65 88/257/65 90/258/65
f 87/259/66 83/260/66 84/261/66 88/262/66
f 86/263/67 85/264/67 89/265/67 90/266/67
f 85/267/68 83/268/68 87/269/68 89/270/68
f 88/271/69 84/272/69 86/273/69 90/274/69
o cuboid
v -0.125 1.5 0.6875
v -0.125 1.5 0.625
v -0.125 1.375 0.6875
v -0.125 1.375 0.625
v -0.25 1.5 0.6875
v -0.25 1.5 0.625
v -0.25 1.375 0.6875
v -0.25 1.375 0.625
vt 0.2734375 0.421875
vt 0.265625 0.421875
vt 0.265625 0.40625
vt 0.2734375 0.40625
vt 0.6328125 0.515625
vt 0.6328125 0.53125
vt 0.625 0.53125
vt 0.625 0.515625
vt 0.6171875 0.40625
vt 0.6328125 0.40625
vt 0.6328125 0.4140625
vt 0.6171875 0.4140625
vt 0.65625 0.5234375
vt 0.65625 0.53125
vt 0.640625 0.53125
vt 0.640625 0.5234375
vt 0.0625 0.6640625
vt 0.0625 0.6796875
vt 0.046875 0.6796875
vt 0.046875 0.6640625
vt 0.0859375 0.6796875
vt 0.0703125 0.6796875
vt 0.0703125 0.6640625
vt 0.0859375 0.6640625
vn 1 0 0
vn -1 0 0
vn 0 1 0
vn 0 -1 0
vn 0 0 1
vn 0 0 -1
usemtl m_5b496b04-1182-ab53-cbb0-e47435491775
f 92/275/70 91/276/70 93/277/70 94/278/70
f 97/279/71 95/280/71 96/281/71 98/282/71
f 95/283/72 91/284/72 92/285/72 96/286/72
f 94/287/73 93/288/73 97/289/73 98/290/73
f 93/291/74 91/292/74 95/293/74 97/294/74
f 96/295/75 92/296/75 94/297/75 98/298/75
o cuboid
v -0.125 1.5 0.8125
v -0.125 1.5 0.6875
v -0.125 1.25 0.8125
v -0.125 1.25 0.6875
v -0.25 1.5 0.8125
v -0.25 1.5 0.6875
v -0.25 1.25 0.8125
v -0.25 1.25 0.6875
vt 0.625 0.359375
vt 0.609375 0.359375
vt 0.609375 0.328125
vt 0.625 0.328125
vt 0.65625 0.359375
vt 0.65625 0.390625
vt 0.640625 0.390625
vt 0.640625 0.359375
vt 0.140625 0.6640625
vt 0.15625 0.6640625
vt 0.15625 0.6796875
vt 0.140625 0.6796875
vt 0.296875 0.4765625
vt 0.296875 0.4921875
vt 0.28125 0.4921875
vt 0.28125 0.4765625
vt 0.171875 0.3203125
vt 0.171875 0.3515625
vt 0.15625 0.3515625
vt 0.15625 0.3203125
vt 0.1953125 0.3515625
vt 0.1796875 0.3515625
vt 0.1796875 0.3203125
vt 0.1953125 0.3203125
vn 1 0 0
vn -1 0 0
vn 0 1 0
vn 0 -1 0
vn 0 0 1
vn 0 0 -1
usemtl m_5b496b04-1182-ab53-cbb0-e47435491775
f 100/299/76 99/300/76 101/301/76 102/302/76
f 105/303/77 103/304/77 104/305/77 106/306/77
f 103/307/78 99/308/78 100/309/78 104/310/78
f 102/311/79 101/312/79 105/313/79 106/314/79
f 101/315/80 99/316/80 103/317/80 105/318/80
f 104/319/81 100/320/81 102/321/81 106/322/81